<?xml version="1.0" encoding="utf-8"?>
<!-- Generator: Adobe Illustrator 23.0.1, SVG Export Plug-In . SVG Version: 6.00 Build 0)  -->
<svg version="1.1" id="Layer_1" xmlns="http://www.w3.org/2000/svg" xmlns:xlink="http://www.w3.org/1999/xlink" x="0px" y="0px"
	 viewBox="0 0 792 612" style="enable-background:new 0 0 792 612;" xml:space="preserve">
<style type="text/css">
	.st0{fill:#4E7AA7;}
	.st1{fill:#F59BA7;}
	.st2{fill:#1785C2;}
	.st3{fill:#262626;}
</style>
<g>
	<g>
		<path class="st0" d="M274.64,236.49c-2.08,7.46-5.29,14.47-9.47,20.92c-5.18,8.01-10.71,15.88-18.22,21.92
			c-5.26,4.24-10.34,8.7-16.44,11.98c-5.02,2.7-10.03,5.31-15.29,7.48c-0.62,0.26-1.29,0.4-2.43,0.76c2.61-6.97,4.8-13.56,8.53-19.5
			c0.69-1.09,1.91-1.58,2.98-2.22c14.22-8.47,24.6-20.42,31.96-35.13c0.07-0.15,0.04-0.35,0.05-0.52c2.05-2.82,2.77-6.22,4-9.4
			c1.01-2.61,2-5.25,2.08-8.11c2.52-9.93,2.72-19.95,1.43-30.08c-0.64-4.98-1.54-9.99-3.19-14.61c-3.4-9.48-7.92-18.49-14.41-26.37
			c-11.85-14.39-26.64-24.32-44.74-28.77c-24.95-6.14-48.16-1.93-69.39,12.76c-3.08,2.13-6.02,4.46-8.93,6.77
			c-2.94,2.35-5.21,5.58-7.61,8.56c-5.82,7.21-10.14,15.26-13.72,23.82c-3.25,7.77-4.52,15.95-5.21,24.12
			c-0.61,7.24,0.08,14.65,1.51,21.85c2.41,12.17,7.54,23.17,14.85,33.16c12.44,17.02,29.22,27.38,49.55,32.33
			c7.25,1.76,14.6,1.92,21.99,1.72c1.15-0.03,2.3,0,3.51,0c-1.01,4.78-1.98,9.4-2.96,14.01c-0.31,1.47-1.58,0.98-2.42,0.99
			c-8.8,0.17-17.5-0.62-26.04-2.81c-19.41-4.96-35.92-14.87-49.34-29.66c-11.55-12.73-19.58-27.53-23.13-44.44
			c-4.74-22.55-2.64-44.36,7.59-65.28c7.95-16.25,19.51-29.38,34.44-39.26c15.07-9.98,31.83-15.56,50.09-16.17
			c6.37-0.21,12.74-0.11,18.97,1.05c3.46,0.65,6.98,1.44,10.43,2.35c4.29,1.12,8.57,2.18,12.65,3.93
			c9.66,4.15,18.62,9.43,26.57,16.36c8.46,7.38,15.79,15.72,21.36,25.49c11.06,19.41,15.28,40.22,12.45,62.42
			c-0.1,0.78-0.35,1.54-0.53,2.31C277.56,226.47,276.09,231.48,274.64,236.49z"/>
		<path class="st0" d="M519.51,243.27c7.18,1.5,13.47,3.88,19.51,6.96c0.92,0.47,1.43,1.29,1.98,2.12
			c12.99,19.38,31.03,31.49,53.74,36.21c14.28,2.97,28.58,2.06,42.57-2.47c13.38-4.34,24.93-11.65,34.56-21.78
			c16.08-16.92,23.97-37.24,23.34-60.57c-0.6-22.44-9.05-41.78-25.04-57.47c-13.83-13.57-30.5-21.61-49.97-23.62
			c-19.73-2.03-38.03,2.17-54.61,12.93c-19.23,12.47-31.29,30.18-36.46,52.5c-2.11,9.1-2.48,18.35-1.29,27.62
			c0.26,1.99,0.01,2.46-2.14,1.9c-3.71-0.97-7.52-1.57-11.37-1.76c-1.16-0.06-1.47-0.49-1.56-1.57
			c-1.13-13.51,0.31-26.72,4.66-39.57c5.53-16.3,14.66-30.36,27.5-41.79c15.41-13.73,33.24-22.42,53.97-24.78
			c8.57-0.98,17.11-1.01,25.65,0.12c17.26,2.29,32.82,8.74,46.6,19.33c16.93,13.01,28.65,29.73,34.8,50.2
			c5.28,17.58,5.83,35.42,0.94,53.13c-9.22,33.39-30.26,56.25-62.71,68.32c-20.7,7.7-41.83,7.76-62.76,1.2
			c-21.29-6.67-38.31-19.54-51.27-37.73C525.95,256.79,522.7,250.38,519.51,243.27z"/>
		<path class="st0" d="M262.41,224.68c-0.08,2.86-1.06,5.5-2.08,8.11c-1.23,3.17-1.95,6.57-4,9.4c-4.51,2.88-9.61,4.66-14.06,7.72
			c-15.24,10.47-26.17,24.2-32.63,41.59c-3.62,9.76-5.19,19.83-5.02,30.1c0.16,9.88,2.02,19.52,5.76,28.81
			c2.23,5.54,4.9,10.82,8.15,15.72c8.34,12.6,19.37,22.32,32.94,29.09c13.63,6.8,28.11,9.58,43.2,8.49
			c10.26-0.74,20.14-3.35,29.54-7.88c10.44-5.03,19.58-11.65,27.21-20.31c9.2-10.45,15.49-22.42,18.77-36.03
			c2.32-9.61,2.46-19.28,1.82-29.02c-0.16-2.34,0.69-2.52,2.49-2.12c3.8,0.84,7.57,1.88,11.5,1.96c1.21,0.02,1.2,0.82,1.22,1.64
			c0.2,9.04,0.5,18.11-1.36,27.01c-3.34,16.04-10.1,30.54-20.41,43.34c-10.23,12.7-22.97,22.21-37.84,28.69
			c-15.2,6.63-31.28,9.16-47.77,7.62c-18.81-1.76-35.92-8.2-51.02-19.85c-6.69-5.16-12.56-11.02-17.92-17.5
			c-7.86-9.51-13.28-20.35-16.98-32c-3.73-11.74-5.1-23.9-4.16-36.18c0.86-11.19,3.27-22.05,7.96-32.4
			c4.91-10.82,11.18-20.59,19.46-29.17c9.06-9.39,19.44-16.72,31.35-22.05c4.15-1.86,8.49-3.1,12.64-4.86c0,0,0.09,0.14,0.09,0.14
			l-0.16-0.06C261.53,224.68,261.97,224.68,262.41,224.68z"/>
		<path class="st1" d="M471.49,226.49c-2.07,7.22-4.75,13.59-8.36,19.55c-0.47,0.78-1.45,1.29-2.28,1.8
			c-22.64,13.85-36.5,33.96-40.03,60.1c-4.23,31.3,6.17,57.74,30.86,77.69c18.93,15.3,40.9,20.85,65.08,17.28
			c15.6-2.31,29.31-8.76,41.34-18.85c16.1-13.5,25.44-30.87,28.84-51.47c1.24-7.5,1.56-15.1,0.27-22.67c-0.3-1.77,0.39-2,1.83-1.58
			c3.8,1.08,7.7,1.58,11.61,1.92c1.51,0.13,1.67,0.78,1.75,2c0.61,8.93,0.01,17.7-1.61,26.58c-2.06,11.25-5.84,21.74-11.74,31.35
			c-16.22,26.42-39.65,42.71-70.38,47.53c-21.82,3.42-42.75-0.2-62.16-10.95c-18.73-10.38-32.78-25.29-42.11-44.66
			c-6.53-13.55-9.5-27.87-9.42-42.79c0.14-24.92,8.75-46.74,25.26-65.34C441.4,241.41,455.05,232.34,471.49,226.49z"/>
		<path class="st0" d="M428.31,299.55c2.02-7.23,4.97-13.47,8.36-19.52c0.59-1.05,1.8-1.42,2.77-2.02
			c21.89-13.62,35.35-33.16,39.42-58.52c4.09-25.55-2.54-48.51-19.41-68.28c-12.78-14.98-29.07-24.32-48.33-27.71
			c-23.89-4.2-46,0.82-65.58,15.46c-17.61,13.17-28.23,30.85-32.37,52.32c-1.54,7.97-1.82,16.13-0.69,24.25
			c0.25,1.8,0.27,2.72-2.26,2.03c-3.58-0.98-7.36-1.29-11.07-1.73c-1.14-0.14-1.67-0.25-1.77-1.62
			c-1.07-15.32,0.78-30.23,6.56-44.49c6.13-15.13,15.35-28.11,27.83-38.73c13.27-11.3,28.44-18.73,45.52-22
			c10.3-1.97,20.72-2.12,31.18-0.88c15.28,1.82,29.24,7.12,41.96,15.61c20.35,13.58,34.11,32.16,40.7,55.73
			c6.46,23.14,4.71,45.9-5.21,67.76c-8.28,18.25-21.25,32.62-38.32,43.2C441.65,294.1,435.38,297.13,428.31,299.55z"/>
		<path class="st0" d="M274.64,236.49c1.45-5.01,2.92-10.02,3.5-15.23c3.94-0.06,7.88-0.18,11.81-0.17
			c15.75,0.06,30.54,3.85,44.48,11.19c11.09,5.84,20.83,13.39,28.95,22.89c5.72,6.69,11.02,13.74,14.37,22.04
			c0.69,1.7,2.06,3.13,2.04,5.22c-2.48,0.54-4.69-0.68-6.88-1.38c-3.78-1.22-7.39-2.98-11.11-4.44c-2.24-0.88-3.27-2.9-4.49-4.66
			c-7.42-10.72-16.9-19-28.29-25.36c-7.57-4.23-15.56-7.36-23.91-8.99c-8.9-1.74-18.06-2.45-27.16-0.64
			C276.83,237.18,275.68,237.17,274.64,236.49z"/>
		<path class="st1" d="M496.4,236.2c0.99-4.59,2.02-8.93,2.82-13.31c0.32-1.74,1.33-1.79,2.63-1.8c15.69-0.17,30.67,2.8,44.84,9.72
			c14.65,7.15,26.85,17.2,36.61,30.22c4.92,6.57,8.98,13.64,12.14,21.6c-4.8-0.47-8.88-2.39-13.09-3.84
			c-4.51-1.55-7.77-4.32-10.69-8.29c-14.33-19.41-33.55-30.78-57.6-33.86C508.19,235.9,502.33,236.13,496.4,236.2z"/>
		<path class="st0" d="M304.21,243.22c6.76,1.47,12.8,3.68,18.62,6.54c1.13,0.56,2.03,1.28,2.75,2.39
			c7.35,11.26,16.91,20.25,28.56,26.9c9.56,5.46,19.79,9.03,30.79,10.4c6.11,0.76,12.22,0.47,18.49,0.48
			c-0.98,4.74-2.41,9.15-2.99,13.73c-0.15,1.18-0.92,1.29-1.9,1.3c-11.66,0.2-23.06-1.32-34.13-5.08
			c-16.36-5.56-30.26-14.88-41.89-27.58C314.73,263.81,308.83,254.13,304.21,243.22z"/>
		<path class="st2" d="M261.1,224.68l0.16,0.06c0,0-0.1-0.14-0.09-0.14c0,0-0.18-0.06-0.18-0.06L261.1,224.68z"/>
	</g>
	<g>
		<path class="st3" d="M85.81,475.41c0,5.09-1.7,9.34-5.09,12.77c-3.42,3.46-7.62,5.18-12.58,5.18c-4.99,0-9.18-1.73-12.58-5.18
			c-3.39-3.42-5.09-7.68-5.09-12.77c0-5.09,1.7-9.34,5.09-12.77c3.39-3.46,7.58-5.18,12.58-5.18s9.18,1.74,12.58,5.23
			C84.11,466.12,85.81,470.36,85.81,475.41z M54.99,475.41c0,3.97,1.25,7.25,3.74,9.84c2.53,2.59,5.66,3.89,9.41,3.89
			s6.86-1.3,9.36-3.89c2.53-2.56,3.79-5.84,3.79-9.84s-1.26-7.28-3.79-9.84c-2.5-2.59-5.62-3.89-9.36-3.89s-6.88,1.3-9.41,3.89
			C56.24,468.17,54.99,471.45,54.99,475.41z"/>
		<path class="st3" d="M94.69,458.23v34.37h-4.42v-34.37H94.69z"/>
		<path class="st3" d="M121.08,469.08l-14.74,33.89h-4.56l5.47-11.86l-9.7-22.03h4.8l7.01,16.9h0.1l6.82-16.9H121.08z"/>
		<path class="st3" d="M128.38,492.6h-4.42v-23.52h4.22v3.26h0.19c0.67-1.15,1.7-2.11,3.1-2.88c1.39-0.77,2.78-1.15,4.15-1.15
			c1.73,0,3.25,0.4,4.56,1.2c1.31,0.8,2.27,1.9,2.88,3.31c1.95-3.01,4.66-4.51,8.11-4.51c2.72,0,4.82,0.83,6.29,2.5
			c1.47,1.66,2.21,4.03,2.21,7.1v14.69h-4.42v-14.02c0-2.21-0.4-3.8-1.2-4.78c-0.8-0.98-2.14-1.46-4.03-1.46
			c-1.7,0-3.12,0.72-4.27,2.16c-1.15,1.44-1.73,3.14-1.73,5.09v13.01h-4.42v-14.02c0-2.21-0.4-3.8-1.2-4.78
			c-0.8-0.98-2.14-1.46-4.03-1.46c-1.7,0-3.12,0.72-4.27,2.16c-1.15,1.44-1.73,3.14-1.73,5.09V492.6z"/>
		<path class="st3" d="M177.1,493.37c-1.73,0-3.3-0.37-4.73-1.1c-1.42-0.74-2.52-1.71-3.29-2.93h-0.19l0.19,3.26v10.37h-4.42v-33.89
			h4.22v3.26h0.19c0.77-1.22,1.86-2.19,3.29-2.93c1.42-0.74,3-1.1,4.73-1.1c3.1,0,5.73,1.22,7.87,3.65
			c2.21,2.46,3.31,5.42,3.31,8.88c0,3.49-1.1,6.45-3.31,8.88C182.83,492.15,180.2,493.37,177.1,493.37z M176.38,489.33
			c2.11,0,3.89-0.8,5.33-2.4c1.44-1.57,2.16-3.6,2.16-6.1c0-2.46-0.72-4.5-2.16-6.1c-1.44-1.6-3.22-2.4-5.33-2.4
			c-2.14,0-3.94,0.8-5.38,2.4c-1.41,1.6-2.11,3.63-2.11,6.1c0,2.5,0.7,4.54,2.11,6.14C172.44,488.55,174.24,489.33,176.38,489.33z"
			/>
		<path class="st3" d="M197.79,460.97c0,0.86-0.3,1.6-0.91,2.21c-0.61,0.61-1.34,0.91-2.21,0.91s-1.6-0.3-2.21-0.91
			c-0.61-0.61-0.91-1.34-0.91-2.21s0.3-1.6,0.91-2.21c0.61-0.61,1.34-0.91,2.21-0.91s1.6,0.3,2.21,0.91
			C197.48,459.37,197.79,460.1,197.79,460.97z M196.88,469.08v23.52h-4.42v-23.52H196.88z"/>
		<path class="st3" d="M213.15,493.37c-3.49,0-6.38-1.18-8.69-3.55c-2.27-2.43-3.41-5.42-3.41-8.98c0-3.62,1.14-6.61,3.41-8.98
			c2.3-2.37,5.2-3.55,8.69-3.55c2.4,0,4.5,0.6,6.29,1.8s3.14,2.86,4.03,4.97l-4.03,1.68c-1.25-2.94-3.44-4.42-6.58-4.42
			c-2.02,0-3.76,0.82-5.23,2.45c-1.44,1.63-2.16,3.65-2.16,6.05c0,2.4,0.72,4.42,2.16,6.05c1.47,1.63,3.22,2.45,5.23,2.45
			c3.23,0,5.5-1.47,6.82-4.42l3.94,1.68c-0.86,2.11-2.22,3.77-4.06,4.97C217.71,492.77,215.58,493.37,213.15,493.37z"/>
		<path class="st3" d="M245.45,486.07c0,2.05-0.9,3.78-2.69,5.18c-1.79,1.41-4.05,2.11-6.77,2.11c-2.37,0-4.45-0.62-6.24-1.85
			c-1.79-1.23-3.07-2.86-3.84-4.87l3.94-1.68c0.58,1.41,1.42,2.5,2.52,3.29c1.1,0.78,2.31,1.18,3.62,1.18c1.41,0,2.58-0.3,3.53-0.91
			c0.94-0.61,1.42-1.33,1.42-2.16c0-1.5-1.15-2.61-3.46-3.31l-4.03-1.01c-4.58-1.15-6.86-3.36-6.86-6.62c0-2.14,0.87-3.86,2.62-5.16
			s3.98-1.94,6.7-1.94c2.08,0,3.96,0.5,5.64,1.49c1.68,0.99,2.86,2.32,3.53,3.98l-3.94,1.63c-0.45-0.99-1.18-1.77-2.18-2.33
			s-2.14-0.84-3.38-0.84c-1.15,0-2.18,0.29-3.1,0.86s-1.37,1.28-1.37,2.11c0,1.34,1.26,2.3,3.79,2.88l3.55,0.91
			C243.12,480.17,245.45,482.52,245.45,486.07z"/>
		<path class="st3" d="M292.73,476.81c0,4.8-1.42,8.62-4.27,11.47c-3.2,3.39-7.41,5.09-12.63,5.09c-4.99,0-9.22-1.73-12.67-5.18
			s-5.18-7.71-5.18-12.77c0-5.06,1.73-9.31,5.18-12.77s7.68-5.18,12.67-5.18c2.53,0,4.91,0.45,7.15,1.34
			c2.24,0.9,4.08,2.16,5.52,3.79l-3.17,3.17c-1.05-1.28-2.42-2.28-4.1-3s-3.48-1.08-5.4-1.08c-3.74,0-6.91,1.3-9.5,3.89
			c-2.56,2.63-3.84,5.9-3.84,9.84c0,3.94,1.28,7.22,3.84,9.84c2.59,2.59,5.76,3.89,9.5,3.89c3.42,0,6.27-0.96,8.54-2.88
			c2.27-1.92,3.58-4.56,3.94-7.92h-12.48v-4.13h16.66C292.65,475.11,292.73,475.97,292.73,476.81z"/>
		<path class="st3" d="M307.66,493.37c-3.46,0-6.3-1.18-8.54-3.55c-2.24-2.37-3.36-5.36-3.36-8.98c0-3.58,1.09-6.57,3.26-8.95
			c2.18-2.38,4.96-3.58,8.35-3.58c3.49,0,6.26,1.13,8.33,3.38c2.06,2.26,3.1,5.42,3.1,9.48l-0.05,0.48h-18.48
			c0.06,2.3,0.83,4.16,2.3,5.57c1.47,1.41,3.23,2.11,5.28,2.11c2.82,0,5.02-1.41,6.62-4.22l3.94,1.92
			c-1.06,1.98-2.52,3.54-4.39,4.66S310.03,493.37,307.66,493.37z M300.6,478.01h13.49c-0.13-1.63-0.79-2.98-1.99-4.06
			c-1.2-1.07-2.81-1.61-4.82-1.61c-1.66,0-3.1,0.51-4.3,1.54C301.78,474.9,300.99,476.28,300.6,478.01z"/>
		<path class="st3" d="M322.83,469.08h4.22v3.26h0.19c0.67-1.15,1.7-2.11,3.1-2.88c1.39-0.77,2.84-1.15,4.34-1.15
			c2.88,0,5.1,0.82,6.65,2.47c1.55,1.65,2.33,3.99,2.33,7.03v14.78h-4.42v-14.5c-0.1-3.84-2.03-5.76-5.81-5.76
			c-1.76,0-3.23,0.71-4.42,2.14c-1.18,1.42-1.78,3.13-1.78,5.11v13.01h-4.42V469.08z"/>
		<path class="st3" d="M358.68,493.37c-3.07,0-5.71-1.21-7.92-3.65c-2.18-2.46-3.26-5.42-3.26-8.88s1.09-6.42,3.26-8.88
			c2.21-2.43,4.85-3.65,7.92-3.65c1.73,0,3.3,0.37,4.73,1.1s2.52,1.71,3.29,2.93h0.19l-0.19-3.26v-10.85h4.42v34.37h-4.22v-3.26
			h-0.19c-0.77,1.22-1.86,2.19-3.29,2.93S360.41,493.37,358.68,493.37z M359.4,489.33c2.18,0,3.95-0.78,5.33-2.35
			c1.44-1.57,2.16-3.62,2.16-6.14c0-2.46-0.72-4.5-2.16-6.1c-1.41-1.6-3.18-2.4-5.33-2.4c-2.11,0-3.89,0.8-5.33,2.4
			c-1.44,1.6-2.16,3.63-2.16,6.1c0,2.5,0.72,4.53,2.16,6.1C355.51,488.53,357.29,489.33,359.4,489.33z"/>
		<path class="st3" d="M386.81,493.37c-3.46,0-6.3-1.18-8.54-3.55c-2.24-2.37-3.36-5.36-3.36-8.98c0-3.58,1.09-6.57,3.26-8.95
			c2.18-2.38,4.96-3.58,8.35-3.58c3.49,0,6.26,1.13,8.33,3.38c2.06,2.26,3.1,5.42,3.1,9.48l-0.05,0.48h-18.48
			c0.06,2.3,0.83,4.16,2.3,5.57c1.47,1.41,3.23,2.11,5.28,2.11c2.82,0,5.02-1.41,6.62-4.22l3.94,1.92
			c-1.06,1.98-2.52,3.54-4.39,4.66S389.18,493.37,386.81,493.37z M379.75,478.01h13.49c-0.13-1.63-0.79-2.98-1.99-4.06
			c-1.2-1.07-2.81-1.61-4.82-1.61c-1.66,0-3.1,0.51-4.3,1.54C380.93,474.9,380.14,476.28,379.75,478.01z"/>
		<path class="st3" d="M406.39,492.6h-4.42v-23.52h4.22v3.84h0.19c0.45-1.25,1.37-2.31,2.76-3.19c1.39-0.88,2.76-1.32,4.1-1.32
			c1.28,0,2.37,0.19,3.26,0.58l-1.34,4.27c-0.54-0.22-1.41-0.34-2.59-0.34c-1.66,0-3.11,0.67-4.34,2.02
			c-1.23,1.34-1.85,2.91-1.85,4.7V492.6z"/>
		<path class="st3" d="M430.73,492.6v-34.37h12.43c2.72,0,5.06,0.9,7.01,2.69c1.95,1.76,2.93,3.98,2.93,6.67
			c0,3.39-1.55,5.78-4.66,7.15v0.19c1.76,0.58,3.17,1.58,4.22,3c1.06,1.42,1.58,3.05,1.58,4.87c0,2.82-1.02,5.15-3.07,7.01
			c-1.98,1.86-4.43,2.78-7.34,2.78H430.73z M435.15,462.45v10.51h8.02c1.57,0,2.88-0.53,3.94-1.58c1.06-1.09,1.58-2.32,1.58-3.7
			c0-1.34-0.51-2.56-1.54-3.65c-1.02-1.06-2.29-1.58-3.79-1.58H435.15z M435.15,477.09v11.28h8.88c1.6,0,2.96-0.56,4.08-1.68
			c1.09-1.12,1.63-2.45,1.63-3.98c0-1.5-0.56-2.82-1.68-3.94c-1.12-1.12-2.53-1.68-4.22-1.68H435.15z"/>
		<path class="st3" d="M464.19,460.97c0,0.86-0.3,1.6-0.91,2.21c-0.61,0.61-1.34,0.91-2.21,0.91c-0.86,0-1.6-0.3-2.21-0.91
			c-0.61-0.61-0.91-1.34-0.91-2.21s0.3-1.6,0.91-2.21c0.61-0.61,1.34-0.91,2.21-0.91c0.86,0,1.6,0.3,2.21,0.91
			C463.88,459.37,464.19,460.1,464.19,460.97z M463.27,469.08v23.52h-4.42v-23.52H463.27z"/>
		<path class="st3" d="M477.72,468.31c3.26,0,5.84,0.87,7.73,2.62c1.89,1.74,2.83,4.14,2.83,7.18v14.5h-4.22v-3.26h-0.19
			c-1.82,2.69-4.26,4.03-7.3,4.03c-2.59,0-4.76-0.77-6.5-2.3s-2.62-3.46-2.62-5.76c0-2.43,0.92-4.37,2.76-5.81
			c1.84-1.44,4.3-2.16,7.37-2.16c2.62,0,4.78,0.48,6.48,1.44v-1.01c0-1.54-0.61-2.84-1.82-3.91c-1.22-1.07-2.64-1.61-4.27-1.61
			c-2.46,0-4.42,1.04-5.86,3.12l-3.89-2.45C470.36,469.85,473.53,468.31,477.72,468.31z M472.01,485.4c0,1.15,0.49,2.11,1.46,2.88
			c0.98,0.77,2.12,1.15,3.43,1.15c1.86,0,3.51-0.69,4.97-2.06c1.46-1.38,2.18-2.99,2.18-4.85c-1.38-1.09-3.3-1.63-5.76-1.63
			c-1.79,0-3.29,0.43-4.49,1.3S472.01,484.12,472.01,485.4z"/>
		<path class="st3" d="M511.03,486.07c0,2.05-0.9,3.78-2.69,5.18c-1.79,1.41-4.05,2.11-6.77,2.11c-2.37,0-4.45-0.62-6.24-1.85
			c-1.79-1.23-3.07-2.86-3.84-4.87l3.94-1.68c0.58,1.41,1.42,2.5,2.52,3.29c1.1,0.78,2.31,1.18,3.62,1.18c1.41,0,2.58-0.3,3.53-0.91
			c0.94-0.61,1.42-1.33,1.42-2.16c0-1.5-1.15-2.61-3.46-3.31l-4.03-1.01c-4.58-1.15-6.86-3.36-6.86-6.62c0-2.14,0.87-3.86,2.62-5.16
			c1.74-1.3,3.98-1.94,6.7-1.94c2.08,0,3.96,0.5,5.64,1.49c1.68,0.99,2.86,2.32,3.53,3.98l-3.94,1.63
			c-0.45-0.99-1.18-1.77-2.18-2.33c-1.01-0.56-2.14-0.84-3.38-0.84c-1.15,0-2.18,0.29-3.1,0.86s-1.37,1.28-1.37,2.11
			c0,1.34,1.26,2.3,3.79,2.88l3.55,0.91C508.7,480.17,511.03,482.52,511.03,486.07z"/>
		<path class="st3" d="M537.14,459.77v32.83h-4.42v-27.36l-6.38,2.78l-1.68-3.74l9.65-4.51H537.14z"/>
		<path class="st3" d="M553.37,480.6c-2.63,0-5.01-1.04-7.15-3.12c-2.08-2.14-3.12-4.64-3.12-7.49c0-2.98,1.12-5.54,3.36-7.68
			c2.24-2.21,4.86-3.31,7.87-3.31c3.17,0,5.84,1.09,8.02,3.26c2.18,2.18,3.26,4.75,3.26,7.73c0,2.66-1.07,5.68-3.22,9.07l-9.55,14.3
			l-3.55-2.45l8.11-11.23l-0.1-0.1C556.28,480.26,554.97,480.6,553.37,480.6z M561.14,469.94c0-1.86-0.67-3.44-2.02-4.75
			c-1.31-1.31-2.91-1.97-4.8-1.97c-1.89,0-3.49,0.66-4.8,1.97c-1.31,1.31-1.97,2.9-1.97,4.75c0,1.86,0.66,3.44,1.97,4.75
			c1.38,1.31,2.98,1.97,4.8,1.97c1.82,0,3.42-0.66,4.8-1.97C560.47,473.41,561.14,471.83,561.14,469.94z"/>
		<path class="st3" d="M590.37,488.37v4.22h-20.93v-4.42l8.5-8.59c2.85-2.91,4.82-5.1,5.9-6.55c1.09-1.46,1.63-2.98,1.63-4.58
			c0-1.44-0.56-2.67-1.68-3.7c-1.12-1.02-2.56-1.54-4.32-1.54c-1.5,0-2.8,0.45-3.89,1.34c-1.09,0.9-1.79,1.98-2.11,3.26l-4.03-1.63
			c0.64-2.02,1.87-3.72,3.7-5.11c1.82-1.39,3.97-2.09,6.43-2.09c2.98,0,5.46,0.91,7.44,2.74c1.98,1.82,2.98,4.06,2.98,6.72
			c0,3.17-1.74,6.59-5.23,10.27l-9.6,9.65H590.37z"/>
		<path class="st3" d="M614.42,485.69v6.91h-4.42v-6.91h-15.6v-3.36l15.22-22.56h4.8v21.79h4.22v4.13H614.42z M599.4,481.56h10.61
			v-15.31h-0.19L599.4,481.56z"/>
		<path class="st3" d="M638.81,479.54h-15.36v-3.65h15.36V479.54z"/>
		<path class="st3" d="M664.34,488.37v4.22h-20.93v-4.42l8.5-8.59c2.85-2.91,4.82-5.1,5.9-6.55c1.09-1.46,1.63-2.98,1.63-4.58
			c0-1.44-0.56-2.67-1.68-3.7c-1.12-1.02-2.56-1.54-4.32-1.54c-1.5,0-2.8,0.45-3.89,1.34c-1.09,0.9-1.79,1.98-2.11,3.26l-4.03-1.63
			c0.64-2.02,1.87-3.72,3.7-5.11c1.82-1.39,3.97-2.09,6.43-2.09c2.98,0,5.46,0.91,7.44,2.74c1.98,1.82,2.98,4.06,2.98,6.72
			c0,3.17-1.74,6.59-5.23,10.27l-9.6,9.65H664.34z"/>
		<path class="st3" d="M668.57,476.18c0-4.99,1.23-9.1,3.7-12.34c2.46-3.23,5.63-4.85,9.5-4.85s7.04,1.63,9.5,4.9
			c2.46,3.23,3.7,7.33,3.7,12.29c0,4.93-1.23,9.04-3.7,12.34c-2.46,3.23-5.63,4.85-9.5,4.85s-7.04-1.62-9.5-4.85
			C669.8,485.22,668.57,481.11,668.57,476.18z M690.45,476.18c0-3.78-0.8-6.88-2.4-9.31c-1.57-2.43-3.66-3.65-6.29-3.65
			s-4.72,1.22-6.29,3.65c-1.6,2.43-2.4,5.54-2.4,9.31c0,3.78,0.8,6.9,2.4,9.36c1.57,2.4,3.66,3.6,6.29,3.6s4.72-1.22,6.29-3.65
			C689.65,483.03,690.45,479.93,690.45,476.18z"/>
		<path class="st3" d="M711,459.77v32.83h-4.42v-27.36l-6.38,2.78l-1.68-3.74l9.65-4.51H711z"/>
		<path class="st3" d="M736.96,485.69v6.91h-4.42v-6.91h-15.6v-3.36l15.22-22.56h4.8v21.79h4.22v4.13H736.96z M721.94,481.56h10.61
			v-15.31h-0.19L721.94,481.56z"/>
	</g>
</g>
</svg>
